<?xml version="1.0" encoding="UTF-8"?>
<svg height="16pt" viewBox="0 0 44 16" width="44pt" xmlns="http://www.w3.org/2000/svg">
 <g id="FIFA_series_logo">
  <path d="m6.42969 3.57031h7.27344l.58593-3.45312h-11.55078l-2.73437 15.78906h4.30078l1.01953-5.98047h5.88281l.58594-3.45312h-5.86328zm0 0"/>
  <path d="m15.79297.11719-2.73438 15.78906h4.27735l2.73437-15.78906zm0 0"/>
  <path d="m30.625 6.47266h-5.86328l.49609-2.90235h7.27735l.58593-3.45312h-11.55078l-2.73828 15.78906h4.30078l1.02344-5.98047h5.88281zm0 0"/>
  <path d="m36.70703.09375-8.09765 15.80859h4.125l1.30468-2.76562h5.35938l.34765 2.76562h4.25782l-2.5-15.80859zm-1.1289 9.74219 2.60546-5.69141h.08594l.71875 5.69141zm0 0"/>
 </g>
</svg>
